<svg xmlns="http://www.w3.org/2000/svg" version="1.1" xmlns:xlink="http://www.w3.org/1999/xlink" xmlns:svgjs="http://svgjs.dev/svgjs" width="1000" height="1000" viewBox="0 0 1000 1000"><rect width="1000" height="1000" fill="#ffffff"></rect><g transform="matrix(0.7,0,0,0.7,149.575764853026,448.9211599279189)"><svg viewBox="0 0 396 59" data-background-color="#ffffff" preserveAspectRatio="xMidYMid meet" height="148" width="1000" xmlns="http://www.w3.org/2000/svg" xmlns:xlink="http://www.w3.org/1999/xlink"><defs></defs><g id="tight-bounds" transform="matrix(1,0,0,1,0.23999588314529774,-0.24975165007634814)"><svg viewBox="0 0 395.52 59.49950330015267" height="59.49950330015267" width="395.52"><g><svg viewBox="0 0 443.62484047566466 66.73608833917757" height="59.49950330015267" width="395.52"><g transform="matrix(1,0,0,1,48.10484047566465,9.22329440867071)"><svg viewBox="0 0 395.52 48.28949952183615" height="48.28949952183615" width="395.52"><g><svg viewBox="0 0 395.52 48.28949952183615" height="48.28949952183615" width="395.52"><g><svg viewBox="0 0 395.52 48.28949952183615" height="48.28949952183615" width="395.52"><g transform="matrix(1,0,0,1,0,0)"><svg width="395.52" viewBox="3 -37.79999923706055 313.67999267578125 38.29999923706055" height="48.28949952183615" data-palette-color="#0080ff"><path d="M15 0L3.5 0 3.5-27.35 3-32.35 3.5-35.4 14.5-35.4 14.5-21.85 24.95-21.85 24.95-35.4 35.95-35.4 35.95-16.6 36.45-13.15 36.45 0 24.95 0 24.95-12.7 14.5-12.7 14.5-9.2 15 0ZM55-31.45L47.6-25.05 40.2-31.45 47.6-37.8 55-31.45ZM53.05 0L42.05 0 42.05-16.55 41-20.55 42-23.6 53.05-23.6 53.05 0ZM69.15 0L58.05 0 58.05-27.4 57-32.4 58.05-35.4 69.15-35.4 69.15-27.4 68.59-14.45 69.55-14.45 72.34-23.6 84.55-23.6 84.55-20.6 79-13 82.7-8 87.4-2.95 87.4 0 75.7 0 71.05-8.25 69.15-7.75 69.15 0ZM102.64 0.5L102.64 0.5Q98.79 0.5 95.67-0.63 92.54-1.75 90.72-4.42 88.89-7.1 88.89-11.8L88.89-11.8Q88.89-15.1 90.02-17.45 91.14-19.8 93.04-21.28 94.94-22.75 97.29-23.43 99.64-24.1 102.14-24.1L102.14-24.1Q105.29-24.1 107.42-23.7 109.54-23.3 110.84-22.8 112.14-22.3 112.84-21.9L112.84-21.9 115.34-13.95 114.34-10.85 99.84-10.85Q100.04-9.45 101.29-8.47 102.54-7.5 105.64-7.5L105.64-7.5Q108.59-7.5 110.54-8.15 112.49-8.8 113.34-9.15L113.34-9.15 113.34-1.45Q112.34-0.9 110.59-0.45 108.84 0 106.77 0.25 104.69 0.5 102.64 0.5ZM99.69-14.1L99.69-14.1 104.79-15.05 104.34-16.65Q103.64-17.05 102.64-17.05L102.64-17.05Q100.99-17.05 100.32-16.15 99.64-15.25 99.69-14.1ZM138.04 0L127.04 0 127.04-25.85 117.04-25.35 117.04-35.4 148.29-35.4 148.29-25.35 138.04-25.85 138.04-8 138.59-3 138.04 0ZM161.24 0L150.34 0 150.34-15.65 149.29-20.65 150.34-23.65 159.14-23.65 160.14-22.5Q160.14-22.5 160.71-22.93 161.29-23.35 162.34-23.75 163.39-24.15 164.79-24.15L164.79-24.15Q165.79-24.15 166.79-24 167.79-23.85 168.34-23.6L168.34-23.6 173.59-18.85 169.34-11.95 162.74-15.7 161.24-15.2 161.24 0ZM181.09 0.5L181.09 0.5Q177.74 0.5 175.66-1.07 173.59-2.65 173.59-6.6L173.59-6.6Q173.59-10.25 176.01-12.13 178.44-14 182.59-14L182.59-14Q184.84-14 186.19-13.58 187.54-13.15 188.24-12.75L188.24-12.75 188.59-13Q188.59-14.55 188.04-15.33 187.49-16.1 185.39-16.1L185.39-16.1Q183.54-16.1 181.61-15.73 179.69-15.35 177.99-14.78 176.29-14.2 175.09-13.55L175.09-13.55 175.09-22.55Q175.89-22.8 177.64-23.15 179.39-23.5 181.84-23.78 184.29-24.05 187.09-24.05L187.09-24.05Q191.79-24.05 194.54-22.93 197.29-21.8 198.46-19.68 199.64-17.55 199.64-14.6L199.64-14.6 199.64-7.95 200.64-2.9 199.64 0.05 189.09 0.05 189.09-2.4 188.59-2.65Q187.79-1.5 185.86-0.5 183.94 0.5 181.09 0.5ZM186.74-6.05L186.74-6.05Q187.49-6.05 187.99-6.3 188.49-6.55 188.59-6.6L188.59-6.6 188.59-7.7Q188.59-8.45 188.14-9 187.69-9.55 186.79-9.55L186.79-9.55Q185.99-9.55 185.29-9.13 184.59-8.7 184.59-7.65L184.59-7.65Q184.59-6.05 186.74-6.05ZM216.08 0.5L216.08 0.5Q212.38 0.5 209.36-0.65 206.33-1.8 204.58-4.5 202.83-7.2 202.83-11.8L202.83-11.8Q202.83-15.35 204.03-17.7 205.23-20.05 207.18-21.48 209.13-22.9 211.46-23.5 213.78-24.1 216.08-24.1L216.08-24.1Q218.83-24.1 220.73-23.88 222.63-23.65 223.43-23.55L223.43-23.55 227.33-19.15 222.83-12.7 217.08-15.6Q215.98-15.6 215.13-14.8 214.28-14 214.28-11.8L214.28-11.8Q214.28-9.5 215.31-8.75 216.33-8 218.08-8L218.08-8Q221.18-8 223.43-8.83 225.68-9.65 226.78-10.15L226.78-10.15 226.78-1.45Q224.88-0.5 222.01 0 219.13 0.5 216.08 0.5ZM243.48 0L232.38 0 232.38-27.4 231.33-32.4 232.38-35.4 243.48-35.4 243.48-27.4 242.93-14.45 243.88-14.45 246.68-23.6 258.88-23.6 258.88-20.6 253.33-13 257.03-8 261.73-2.95 261.73 0 250.03 0 245.38-8.25 243.48-7.75 243.48 0ZM276.98 0.5L276.98 0.5Q273.13 0.5 270-0.63 266.88-1.75 265.05-4.42 263.23-7.1 263.23-11.8L263.23-11.8Q263.23-15.1 264.35-17.45 265.48-19.8 267.38-21.28 269.28-22.75 271.63-23.43 273.98-24.1 276.48-24.1L276.48-24.1Q279.63-24.1 281.75-23.7 283.88-23.3 285.18-22.8 286.48-22.3 287.18-21.9L287.18-21.9 289.68-13.95 288.68-10.85 274.18-10.85Q274.38-9.45 275.63-8.47 276.88-7.5 279.98-7.5L279.98-7.5Q282.93-7.5 284.88-8.15 286.83-8.8 287.68-9.15L287.68-9.15 287.68-1.45Q286.68-0.9 284.93-0.45 283.18 0 281.1 0.25 279.03 0.5 276.98 0.5ZM274.03-14.1L274.03-14.1 279.13-15.05 278.68-16.65Q277.98-17.05 276.98-17.05L276.98-17.05Q275.33-17.05 274.65-16.15 273.98-15.25 274.03-14.1ZM304.32 0L293.43 0 293.43-15.65 292.38-20.65 293.43-23.65 302.23-23.65 303.23-22.5Q303.23-22.5 303.8-22.93 304.38-23.35 305.43-23.75 306.48-24.15 307.88-24.15L307.88-24.15Q308.88-24.15 309.88-24 310.88-23.85 311.43-23.6L311.43-23.6 316.68-18.85 312.43-11.95 305.82-15.7 304.32-15.2 304.32 0Z" opacity="1" transform="matrix(1,0,0,1,0,0)" fill="#000000" class="undefined-text-0" data-fill-palette-color="primary" id="text-0"></path></svg></g></svg></g></svg></g></svg></g><g><svg viewBox="0 0 36.70484858654766 66.73608833917757" height="66.73608833917757" width="36.70484858654766"><g><svg xmlns="http://www.w3.org/2000/svg" viewBox="7 2 11 20" x="0" y="0" height="66.73608833917757" width="36.70484858654766" class="icon-icon-0" data-fill-palette-color="accent" id="icon-0"><g fill="#0080ff" data-fill-palette-color="accent"><path d="M18 10H17v3.293l-1.089-1.089L14.395 9.172a1.994 1.994 0 0 0-1.634-2.159h0a2.014 2.014 0 0 0-0.349-0.031 1.993 1.993 0 0 0-1.355 0.54L7 9.162V14H8V9.838l2.404-0.972L8.895 17.791 7.058 21.267l0.884 0.466 1.873-3.545 0.631-3.46 0.686 0.121L13 17.651V22h1V17.349l-1.506-2.26 0.848 0.15 0.774-4.389 0.937 1.874L17 14.7V22h1Zm-5.469 4.08l-1.97-0.347 0.868-4.924a0.997 0.997 0 0 1 0.983-0.827 1.013 1.013 0 0 1 0.176 0.016 1.001 1.001 0 0 1 0.811 1.158ZM13 6a2 2 0 1 0-2-2A2 2 0 0 0 13 6Zm0-3a1 1 0 1 1-1 1A1.001 1.001 0 0 1 13 3Z" fill="#000000" data-fill-palette-color="accent"></path></g></svg></g></svg></g></svg></g></svg><rect width="395.52" height="59.49950330015267" fill="none" stroke="none" visibility="hidden"></rect></g></svg></g></svg>